<svg width="181" height="220" viewBox="0 0 181 220" fill="none" xmlns="http://www.w3.org/2000/svg">
<path d="M190.757 69.9764C190.757 69.9764 201.618 69.938 198.377 77.005C194.201 86.1131 162.734 74.3961 124.141 99.5211C124.141 99.5211 117.633 101.989 120.145 95.8221C122.653 89.6704 148.871 73.1247 190.762 69.9606L190.757 69.9764Z" fill="#183228"/>
<path d="M96.789 96.0176C108.654 96.383 114.83 90.1194 118.399 80.2589C123.731 66.9621 133.044 43.4605 125.453 28.908C119.718 17.8015 108.776 15.6278 97.3133 15.3363C78.1309 14.6781 59.8623 22.1161 46.7006 35.2693C42.0541 39.9718 37.9327 45.6068 37.1018 52.292C33.8268 76.8387 76.4838 94.5194 96.5678 96.0258L96.8005 96.0376L96.789 96.0176Z" fill="#183228"/>
<path d="M62.6169 191.928C74.1148 195.548 86.0914 188.076 91.6825 177.207C99.3958 163.386 102.871 138.91 103.928 128.427C106.498 112.419 96.8384 106.09 82.4325 103.325C67.7973 100.347 31.0342 92.0464 19.4424 107.389C17.9755 109.406 16.9684 111.781 16.3396 114.19C8.33383 147.275 29.5353 183.031 62.444 191.882L62.6169 191.928Z" fill="#183228"/>
<path d="M182.411 119.734C170.279 106.661 145.51 107.673 131.057 108.417C124.796 108.643 117.748 110.36 114.818 116.517C113.156 119.829 113.107 122.275 112.962 125.269C112.845 128.473 112.836 131.335 112.906 135.599C113.441 148.379 114.287 166.852 123.869 176.681C139.485 190.773 165.704 175.171 175.808 160.979C180.738 153.96 184.031 148.524 185.698 139.536C186.881 133.484 186.832 125.182 182.535 119.902L182.395 119.73L182.411 119.734Z" fill="#183228"/>
</svg>
