<svg width="40" height="48" viewBox="0 0 40 48" fill="none" xmlns="http://www.w3.org/2000/svg">
<g clip-path="url(#clip0_1009_13102)">
<path d="M25.5417 4C11.4361 4 0 15.4361 0 29.5417C0 37.5264 6.47361 44 14.4583 44H25.0941C33.3263 44 40 37.3263 40 29.0941V18.4583C40 10.4736 33.5264 4 25.5417 4Z" fill="#D3E194"/>
<path d="M9.69236 33.9039C9.69236 33.9039 7.99696 34.3646 8.20757 33.1247C8.47873 31.5267 13.8861 32.04 18.8644 26.4984C18.8644 26.4984 19.7779 25.8402 19.6437 26.9091C19.5094 27.9753 16.1054 31.6583 9.69236 33.9066V33.9039Z" fill="#336B57"/>
<path d="M23.2847 25.9008C21.4156 26.3404 20.7127 27.5778 20.5679 29.2679C20.2915 31.5688 19.8202 35.6309 21.6157 37.587C22.9767 39.0823 24.7774 38.9638 26.5808 38.5295C29.6057 37.8292 32.1488 35.9021 33.6546 33.2958C34.1838 32.3665 34.5918 31.3135 34.4418 30.2341C33.9258 26.2615 26.5202 25.2848 23.319 25.8903L23.2821 25.8982L23.2847 25.9008Z" fill="#336B57"/>
<path d="M24.6094 9.48377C22.6612 9.39953 21.1027 11.0686 20.6841 13.0009C20.0576 15.4835 20.5393 19.4535 20.8131 21.1357C21.0817 23.7447 22.856 24.3291 25.2228 24.158C27.6342 24.0106 33.7261 23.7684 34.895 20.8856C35.0398 20.5092 35.0977 20.0959 35.0951 19.6931C34.9608 14.1883 30.151 9.48903 24.6383 9.48377H24.6094Z" fill="#336B57"/>
<path d="M8.91321 25.7797C11.3563 27.3145 15.1841 26.1193 17.4113 25.398C18.3801 25.1005 19.4095 24.5371 19.6095 23.4525C19.7306 22.8654 19.6359 22.481 19.5332 22.0072C19.4174 21.5017 19.2989 21.0541 19.1093 20.3907C18.4907 18.4163 17.5851 15.5651 15.6764 14.4305C12.6463 12.8825 9.2028 16.4181 8.2182 19.0586C7.7417 20.3618 7.45474 21.349 7.57058 22.8233C7.63903 23.8184 7.99443 25.1136 8.88689 25.7586L8.91585 25.7797H8.91321Z" fill="#336B57"/>
</g>
<defs>
<clipPath id="clip0_1009_13102">
<rect width="40" height="40" fill="white" transform="translate(0 4)"/>
</clipPath>
</defs>
</svg>